<svg fill="#b1cc5f" viewBox="0 0 24 24" xmlns="http://www.w3.org/2000/svg" xmlns:xlink="http://www.w3.org/1999/xlink"><clipPath id="clip0_339_5727"><path d="m0 0h24v24h-24z"></path></clipPath><g clip-path="url(#clip0_339_5727)"><path clip-rule="evenodd" d="m8.7587 1.5h6.4826c.805-.00001 1.4693-.00002 2.0105.04419.5621.04593 1.0788.14449 1.5642.39178.7526.3835 1.3645.99542 1.748 1.74807.2473.48533.3459 1.00204.3918 1.56413.0442.54119.0442 1.20555.0442 2.01051v10.49632c0 .8669 0 1.585-.0488 2.1364-.0469.5288-.1511 1.1437-.5502 1.6109-.5197.6085-1.2994.9315-2.0971.8687-.6126-.0482-1.1211-.4093-1.5282-.7501-.4244-.3553-.9321-.8631-1.5451-1.4761l-2.2407-2.2406c-.3086-.3087-.4982-.4972-.6511-.627-.2283-.1938-.4493-.1938-.6776 0-.1529.1298-.3425.3183-.6512.627l-2.24064 2.2406c-.61296.613-1.12069 1.1208-1.5451 1.4761-.40711.3408-.91558.7019-1.52811.7501-.7978.0628-1.57744-.2602-2.09717-.8687-.39903-.4672-.50329-1.0821-.55015-1.6109-.04886-.5514-.04885-1.2695-.04883-2.1364v-10.4963c-.00001-.80497-.00002-1.46933.04419-2.01053.04593-.56209.14449-1.0788.39178-1.56413.3835-.75265.99542-1.36457 1.74807-1.74807.48533-.24729 1.00204-.34585 1.56413-.39178.5412-.04421 1.20556-.0442 2.01053-.04419z" fill="#b1cc5f" fill-rule="evenodd"></path></g></svg>