<svg width="330" height="330" viewBox="0 0 330 330" fill="none" xmlns="http://www.w3.org/2000/svg">
<g clip-path="url(#clip0_4_51)">
<path fill-rule="evenodd" clip-rule="evenodd" d="M278.305 186.322C195.323 231.458 102.011 210.844 58.1775 126.209C56.7185 123.391 53.252 122.289 50.4529 123.72C47.627 125.191 46.5221 128.661 47.9811 131.479C94.9401 222.234 194.856 244.78 283.785 196.429C286.562 194.925 287.606 191.415 286.096 188.622C284.559 185.869 281.082 184.819 278.305 186.322Z" fill="black"/>
<path d="M136.17 134.585C143.905 139.643 154.276 137.474 159.335 129.74C164.394 122.005 162.224 111.634 154.49 106.575C146.755 101.516 136.384 103.685 131.325 111.42C126.266 119.155 128.435 129.526 136.17 134.585Z" fill="black"/>
<path d="M203.891 157.607C211.475 162.567 221.643 160.44 226.603 152.857C231.563 145.273 229.436 135.105 221.853 130.145C214.269 125.185 204.101 127.312 199.141 134.895C194.181 142.479 196.308 152.647 203.891 157.607Z" fill="black"/>
</g>
<defs>
<clipPath id="clip0_4_51">
<rect width="238.383" height="238.383" fill="white" transform="translate(130.483) rotate(33.1865)"/>
</clipPath>
</defs>
</svg>
