<svg xmlns="http://www.w3.org/2000/svg">

  <symbol id="code" viewBox="0 0 16 16">
    <g fill="currentColor">
      <path d="M9.424 2.02a.75.75 0 00-.904.556l-2.5 10.5a.75.75 0 001.46.348l2.5-10.5a.75.75 0 00-.556-.904zM11.2 4.24a.75.75 0 011.06-.04l3.5 3.25a.75.75 0 010 1.1l-3.5 3.25a.75.75 0 11-1.02-1.1L14.148 8 11.24 5.3a.75.75 0 01-.04-1.06zM4.76 5.3a.75.75 0 00-1.02-1.1L.24 7.45a.75.75 0 000 1.1l3.5 3.25a.75.75 0 101.02-1.1L1.852 8 4.76 5.3z"/>
    </g>
  </symbol>

  <symbol id="link-icon" viewBox="0 0 71 70" fill="none">
    <g clip-path="url(#clip0_13_317)">
      <path d="M27 43.75L44.5 26.25" stroke="currentColor" stroke-opacity="0.9" stroke-width="5" stroke-linecap="round" stroke-linejoin="round"/>
      <path d="M31.375 20.8114L39.5945 12.6083C42.0627 10.18 45.3904 8.82537 48.8529 8.83946C52.3153 8.85356 55.6319 10.2353 58.0802 12.6836C60.5285 15.1319 61.9102 18.4485 61.9243 21.9109C61.9384 25.3733 60.5838 28.7011 58.1555 31.1692L49.9359 39.3751" stroke="currentColor" stroke-opacity="0.9" stroke-width="5" stroke-linecap="round" stroke-linejoin="round"/>
      <path d="M21.5609 30.625L13.3578 38.8445C10.9295 41.3127 9.57488 44.6404 9.58898 48.1029C9.60307 51.5653 10.9848 54.8819 13.4331 57.3302C15.8814 59.7785 19.198 61.1602 22.6604 61.1743C26.1228 61.1884 29.4506 59.8338 31.9188 57.4055L40.1246 49.1859" stroke="currentColor" stroke-opacity="0.9" stroke-width="5" stroke-linecap="round" stroke-linejoin="round"/>
    </g>
    <defs>
      <clipPath id="clip0_13_317">
        <rect width="70" height="70" fill="currentColor" transform="translate(0.75)"/>
      </clipPath>
    </defs>
  </symbol>

  <symbol id="folder-icon" viewBox="0 0 180 141" fill="none">
    <g clip-path="url(#clip0)">
      <path d="M156.96 0.381836C159.703 0.684628 162.453 0.940059 165.189 1.29938C174.067 2.46897 178.4 7.35699 178.83 16.3608C179.613 32.7597 178.758 49.1215 178.153 65.5031C177.744 76.5557 178.271 87.6408 178.214 98.7102C178.178 105.346 178.177 112.016 177.538 118.61C176.171 132.687 168.11 140.015 153.925 140.475C149.274 140.626 144.611 140.461 139.954 140.44C127.761 140.383 115.569 140.324 103.376 140.264C83.8624 140.146 64.348 140.078 44.8358 139.814C41.0693 139.681 37.3232 139.199 33.6457 138.373C28.0149 137.228 23.9946 133.594 20.9075 128.976C17.6148 124.05 15.6283 118.483 14.1677 112.804C10.9202 100.179 7.82017 87.516 4.86753 74.8163C3.40959 68.5785 2.18252 62.2722 1.17079 55.9454C0.133106 49.4211 3.001 45.5278 9.50725 44.2984C13.3032 43.5837 17.1601 43.174 21.1513 42.6035C21.2648 42.0051 21.39 41.3765 21.5028 40.7456C22.1851 36.9353 24.3403 34.0877 27.9384 32.9337C32.3296 31.451 36.8466 30.3729 41.4335 29.7128C61.6267 27.1436 81.9388 27.6772 102.229 27.8143C103.225 27.8214 104.222 27.7963 105.216 27.7496C105.41 27.7405 105.595 27.5612 105.858 27.4215C105.858 24.9465 105.8 22.4288 105.874 19.9149C105.955 17.1508 106.03 14.3763 106.333 11.631C107.006 5.53678 109.317 2.90655 115.492 2.12682C121.308 1.39258 127.2 1.24432 133.063 0.886297C136.59 0.670573 140.122 0.546877 143.652 0.381836H156.96ZM10.2674 52.2879C10.3446 53.949 10.5047 55.6056 10.7473 57.2506C13.778 71.7253 16.7503 86.2139 19.9567 100.649C21.8535 109.52 25.16 118.029 29.7498 125.85C31.8122 129.313 34.756 131.057 38.7115 131.113C42.7974 131.172 46.8878 131.123 50.9762 131.118C71.7066 131.094 92.4368 131.073 113.167 131.053C121.591 131.053 130.015 131.151 138.439 131.21C144.204 131.249 149.968 131.34 155.732 131.323C158.527 131.388 161.266 130.53 163.527 128.884C166.608 126.577 167.134 124.006 165.3 120.622C164.646 119.468 164.054 118.281 163.524 117.066C158.466 104.815 153.224 92.6342 148.478 80.2646C145.684 72.8072 142.032 65.7006 137.597 59.0896C134.018 53.8316 129.267 50.2105 122.818 49.3392C119.097 48.7513 115.34 48.4317 111.575 48.3823C100.823 48.4882 90.0742 48.8599 79.3244 49.1374C60.4853 49.6227 41.6436 50.0409 22.8103 50.6647C18.7705 50.7986 14.7566 51.6856 10.2674 52.2879ZM167.659 102.702L168.317 102.673C168.317 101.353 168.391 100.029 168.306 98.7148C167.194 81.3341 167.86 63.9767 168.596 46.5979C169.002 36.9924 168.498 27.3419 168.227 17.7168C168.105 13.3543 167.458 12.893 163.104 12.4908C161.779 12.3686 160.449 12.2312 159.122 12.2312C146.483 12.2412 133.844 12.2729 121.206 12.3271C119.681 12.3349 118.158 12.6002 116.594 12.7497C116.594 16.6197 116.554 20.2431 116.609 23.8649C116.643 26.0741 116.966 28.2893 116.907 30.4927C116.803 34.3725 115.415 36.1186 111.6 36.9809C109.14 37.5954 106.619 37.9318 104.084 37.9841C92.1113 37.9334 80.1325 37.3991 68.1687 37.6401C58.2141 37.8429 48.2692 38.7973 38.3353 39.6186C35.7087 39.8357 32.9096 40.1554 30.3582 42.4855C30.8961 42.6011 31.4409 42.6817 31.9893 42.7266C47.6167 42.4377 63.244 42.1391 78.8711 41.8306C92.0555 41.5493 105.239 40.991 118.424 40.9442C128.434 40.9085 137.272 44.4093 143.452 52.5106C147.577 57.8452 151.15 63.585 154.118 69.6428C158.225 78.1912 161.451 87.1625 165.036 95.9585C165.946 98.195 166.787 100.454 167.659 102.702Z" fill="currentColor"/>
    </g>
    <defs>
      <clipPath id="clip0">
        <rect fill="currentColor" height="141" transform="translate(0.777344)" width="179"/>
      </clipPath>
    </defs>
  </symbol>

  <symbol id="arrow-move" viewBox="0 0 151 84" fill="none">
    <path d="M68.1002 41.3499C50.104 41.2042 32.1079 41.0874 14.1118 40.8905C10.5249 40.8505 6.93279 40.5689 3.36035 40.2178C2.76932 40.1535 2.21142 39.9124 1.75964 39.526C1.30786 39.1395 0.983227 38.6258 0.828173 38.0518C0.53479 37.133 1.55475 35.8295 2.77291 35.6378C3.95432 35.4521 5.12976 35.1639 6.31707 35.0924C13.8997 34.6329 21.4818 33.9826 29.0717 33.8454C44.665 33.5652 60.2628 33.4943 75.8594 33.4765C90.6565 33.4595 105.454 33.6446 120.251 33.6787C122.627 33.6846 125.005 33.3853 127.377 33.1733C127.534 33.1345 127.679 33.0567 127.799 32.9472C127.918 32.8377 128.008 32.6999 128.061 32.5465C128.103 32.1803 127.995 31.562 127.751 31.4307C123.204 28.9589 118.713 26.3585 114.037 24.1526C103.16 19.0207 92.9557 12.7277 82.7588 6.41374C81.0832 5.37607 79.3268 4.32201 78.6508 2.26308C78.528 1.88831 78.3364 1.24642 78.4926 1.12106C79.052 0.599398 79.7318 0.224347 80.4715 0.0295109C81.2592 -0.0634608 82.0572 0.0642497 82.7765 0.39838C85.3244 1.55222 87.854 2.75664 90.333 4.05094C108.051 13.3014 125.763 22.5621 143.469 31.8331C150.157 35.3116 153.336 38.6846 145.307 46.3329C142.994 48.5375 140.654 50.7389 138.139 52.6993C126.475 61.8006 114.768 70.8462 103.018 79.8362C101.403 80.9957 99.699 82.0271 97.9228 82.9211C96.7644 83.5499 95.6046 83.177 94.6044 82.4229C93.5037 81.5926 92.8204 79.1793 93.1998 78.118C94.0432 75.7617 95.7235 74.033 97.5278 72.4676C104.475 66.4411 111.46 60.4579 118.481 54.518C123.044 50.6365 127.655 46.812 132.211 42.9225C132.436 42.7309 132.447 42.1349 132.356 41.7766C132.296 41.6215 132.199 41.4833 132.074 41.3737C131.949 41.2642 131.799 41.1867 131.638 41.1478C129.256 40.9916 126.871 40.7927 124.488 40.8052C105.691 40.9045 86.8948 41.0283 68.0982 41.1767L68.1002 41.3499Z" fill="currentColor"/>
  </symbol>

  <symbol id="burger-menu" viewBox="0 0 512 512" fill="none">
    <g id="Hamburger">
      <path fill="currentColor" d="M479.94,212.56a62.1819,62.1819,0,0,1-19.15-5.04c-2.06-1.36-8.88-6.69-3.02-14.86,8.0451-13.8852,3.4059-36.208-22.8958-41.5538A145.2634,145.2634,0,0,0,411.6221,105.28c-14.2168-18.6426-32.94-33.3472-55.65-43.7046C329.0571,49.3,296.3047,43.0762,258.6255,43.0762S188.1938,49.3,161.2793,61.5757c-22.71,10.3574-41.4336,25.062-55.65,43.7046a145.1,145.1,0,0,0-22.9725,44.9018c-31.979,2.7685-38.0192,27.53-29.3464,42.4779,6.83,9.51-3.58,15.21-3.59,15.21a62.6154,62.6154,0,0,1-18.38,4.69C2.2167,215.4457-1.1623,267.8208,50.9,278.288V306.61c0,10.56,7.87,20.54,21.85,29.37.03,16.79.77,49.35,23.41,78.55,28.57,36.83,82.22,55.5,159.48,55.5s130.91-18.67,159.47-55.5c22.07-28.45,23.34-60.08,23.41-77.22,15.33-9.15,24.02-19.6,24.02-30.7V277.8179C512.3307,266.3514,508.653,215.405,479.94,212.56ZM258.6255,56.0762c165.1206,0,169.8877,122.0971,169.8877,136.02,0,11.5679-17.62,24.0757-47.1319,33.4585-32.6958,10.3945-76.291,16.1191-122.7558,16.1191s-90.06-5.7246-122.7554-16.1191c-29.5127-9.3828-47.1323-21.8906-47.1323-33.4585C88.7378,178.1733,93.5049,56.0762,258.6255,56.0762ZM366.3994,301.3046A172.5488,172.5488,0,0,0,354.66,322.45c-1.11,2.26-2.15,4.46-3.14,6.54-1.02,2.14-1.96,4.12-2.81,5.86l-13.29,27.01a10.5671,10.5671,0,0,1-8.74,5.99,10.7215,10.7215,0,0,1-9.66-4.39l-10-13.7c-2.61-3.59-5.72-8.64-9-13.99q-1.755-2.865-3.57-5.78c-7.0549-11.3492-14.7618-22.89-23.4375-30.0961A62.8837,62.8837,0,0,0,296.68,289.17a19.6312,19.6312,0,0,1,23.15.3c7.37,5.41,19.48,10.68,39.06,11.74C361.5293,301.35,364.0253,301.3738,366.3994,301.3046ZM64.8605,279.9629A135.5681,135.5681,0,0,0,89.58,278.74a19.8253,19.8253,0,0,1,18.12,7.03c6.13,7.57,18.94,16.81,44.69,15.44,19.69-1.06,31.81-6.39,39.17-11.82a19.8674,19.8674,0,0,1,23.31-.53,63.7855,63.7855,0,0,0,10.0479,5.7942l-.0379.1058,1.37.4921a67.9923,67.9923,0,0,0,8.4431,3.0318L256.6,306.15c7.49,2.69,15.73,13.55,22.93,24.6q-11.22.45-22.81.45c-57.85,0-109.87-8.38-145.89-21.71q-8.28-3.075-15.39-6.47C81.1407,296.1682,70.6159,288.3709,64.8605,279.9629Zm178.415,91.9487-7.5856,4.4341c-13.2133,5.53-22.935,16.3486-31.4707,27.2275l-12.8217,16.3077a10.891,10.891,0,0,1-18.03-1.36L157.4,390.3579c-.9717-1.7139-2.0869-3.8-3.2681-6.0088-4.2549-7.9586-9.31-17.3979-15.0963-24.053C168.9476,366.9357,204.6566,371.12,243.2755,371.9116ZM404.84,406.56c-25.97,33.49-76.17,50.47-149.2,50.47s-123.23-16.98-149.2-50.47c-17.19-22.16-20.1-47.15-20.59-63.45,4.8438,2.287,10.1413,4.4685,15.8317,6.5383L125.9868,365.68c5.7056,4.271,12.3047,16.6133,16.6807,24.7988,1.22,2.2813,2.3721,4.4361,3.4233,6.291l15.9707,28.1685A23.8712,23.8712,0,0,0,181.07,436.9712q.8979.0666,1.7891.0664a23.8253,23.8253,0,0,0,18.76-9.125l12.8233-16.31c7.5288-9.5957,15.9609-19.0718,26.5923-23.4a6.4657,6.4657,0,0,0,.8295-.4087l27.1318-15.8606c12.6144-.2364,24.9277-.8335,36.8335-1.7638l.69.95a23.59,23.59,0,0,0,19.17,9.77c.7,0,1.41-.03,2.12-.09a23.598,23.598,0,0,0,19.28-13.21l1.16-2.35c30.94-4.89,57.46-12.19,77.14-21.12C424.81,360.43,421.68,384.85,404.84,406.56ZM416.77,303.6q-7.11,3.33-15.39,6.34a281.601,281.601,0,0,1-30.37,8.99c4-7.47,8.42-14.53,12.62-17.98l5.0506-4.1476A38.3886,38.3886,0,0,0,403.57,285.77a19.8524,19.8524,0,0,1,18.13-7.03,132.7351,132.7351,0,0,0,26.9647,1.1008C442.767,288.5363,431.7685,296.5825,416.77,303.6Z"/><path d="M193.0566,129.2983c4.1119,2.3746,8.6343,4.09,11.9659,4.09,1.958,0,3.5048-.5933,4.3134-1.9937,2.1841-3.7837-3.4257-9.2807-9.9546-13.05s-14.0952-5.88-16.2792-2.0962c-.7388,1.2793-.9839,3.5162,2.0463,6.9063A32.9706,32.9706,0,0,0,193.0566,129.2983Z"/>
      <path fill="currentColor" d="M344.938,145.4214a32.955,32.955,0,0,0,9.2749,3.7768,13.2591,13.2591,0,0,0,2.706.3106c2.5332,0,3.732-1.01,4.2979-1.9912.7388-1.2793.9839-3.5161-2.0464-6.9063a36.6911,36.6911,0,0,0-17.1831-9.9209c-4.4526-.9316-6.2656.4009-7.0039,1.6807s-.9839,3.5166,2.0464,6.9062A32.9483,32.9483,0,0,0,344.938,145.4214Z"/>
      <path fill="currentColor" d="M285.3057,128.4312c3.4985,0,8.29-3.8731,12.1-8.4981,4.7925-5.8188,8.12-12.9341,4.7475-15.7119s-9.7182,1.8511-14.5112,7.67h0c-4.7925,5.8193-8.1191,12.9346-4.7475,15.7124A3.6824,3.6824,0,0,0,285.3057,128.4312Z"/>
      <path fill="currentColor" d="M250.5327,161.17c-.7446,1.29-.99,3.5459,2.0723,6.9717a37.196,37.196,0,0,0,17.414,10.0542,13.4781,13.4781,0,0,0,2.7393.3144c2.5562,0,3.7642-1.018,4.3345-2.0058.7446-1.29.99-3.5464-2.0723-6.9722a33.4139,33.4139,0,0,0-8.0142-6.2261C260.3955,159.49,252.7383,157.3481,250.5327,161.17Z"/>
      <path fill="currentColor" d="M172.6665,178.5107a13.5138,13.5138,0,0,0,2.7393-.3144,33.4249,33.4249,0,0,0,9.3994-3.8281c6.61-3.816,12.2925-9.377,10.0869-13.1978s-9.8628-1.6811-16.4736,2.1362-12.2925,9.377-10.087,13.1983C168.9019,177.4932,170.11,178.5107,172.6665,178.5107Z"/>
      <path fill="currentColor" d="M231.8428,96.106c3.3711,0,7.9551-1.74,12.122-4.146,6.61-3.8169,12.293-9.378,10.087-13.1983-.7437-1.29-2.5757-2.6274-7.0738-1.6914a37.196,37.196,0,0,0-17.414,10.0542c-3.062,3.4258-2.8169,5.6821-2.0723,6.9717C228.3071,95.5083,229.8662,96.106,231.8428,96.106Z"/>
    </g>
  </symbol>

</svg>