<svg xmlns="http://www.w3.org/2000/svg">

  <symbol id="rsschool-logo" viewBox="0 0 80 29">
    <path d="M41.2862 9.10523L45.0447 8.86509C45.1304 9.4725 45.2876 9.92452 45.5449 10.2494C45.9593 10.7579 46.5309 11.0122 47.2883 11.0122C47.8457 11.0122 48.2887 10.8851 48.5888 10.6167C48.8746 10.4048 49.0461 10.0658 49.0461 9.71263C49.0461 9.37362 48.8889 9.04872 48.6174 8.83684C48.3316 8.58258 47.6599 8.32832 46.6024 8.1023C44.8732 7.72091 43.6299 7.21239 42.9011 6.56261C42.1722 5.9552 41.7578 5.06528 41.7864 4.11886C41.7864 3.46908 41.9864 2.8193 42.358 2.28253C42.7867 1.67512 43.3726 1.19485 44.0729 0.926463C44.8303 0.601572 45.8878 0.432064 47.2169 0.432064C48.8461 0.432064 50.0894 0.728703 50.9468 1.33611C51.8043 1.92939 52.3187 2.88993 52.4759 4.20362L48.7603 4.4155C48.6603 3.85048 48.4602 3.44083 48.1315 3.17244C47.8028 2.90406 47.3741 2.77693 46.8168 2.77693C46.3594 2.77693 46.0165 2.87581 45.7878 3.05944C45.5734 3.22895 45.4305 3.48321 45.4448 3.76572C45.4448 3.97761 45.5592 4.17537 45.7306 4.3025C45.9164 4.47201 46.3594 4.62739 47.0597 4.76865C48.7889 5.13591 50.0179 5.50318 50.7753 5.88457C51.5327 6.26597 52.0758 6.73211 52.4045 7.28301C52.7475 7.84804 52.919 8.49782 52.9047 9.16173C52.9047 9.95277 52.676 10.7438 52.2187 11.4077C51.7471 12.0999 51.0897 12.6366 50.318 12.9615C49.5034 13.3147 48.4745 13.4983 47.2455 13.4983C45.0733 13.4983 43.5727 13.0887 42.7296 12.2553C41.8864 11.4218 41.3862 10.3765 41.2862 9.10523ZM1.40033 13.2864V0.658075H7.98842C9.20315 0.658075 10.1463 0.756955 10.7894 0.96884C11.4182 1.1666 11.9756 1.57624 12.3471 2.12714C12.7616 2.73455 12.9616 3.44083 12.9474 4.17537C12.9902 5.41843 12.3471 6.60498 11.2467 7.22651C10.818 7.46665 10.3464 7.63616 9.86053 7.72091C10.2178 7.81979 10.5751 7.9893 10.8895 8.18706C11.1324 8.38482 11.3325 8.61083 11.5183 8.85096C11.7326 9.0911 11.9184 9.35949 12.0756 9.642L13.9906 13.3006H9.50326L7.38821 9.41599C7.11668 8.92159 6.88802 8.5967 6.67366 8.44132C6.38784 8.24356 6.04486 8.14468 5.70188 8.14468H5.3589V13.2723H1.40033V13.2864ZM5.3589 5.77157H7.03093C7.38821 5.74332 7.73119 5.68681 8.07417 5.60206C8.3314 5.55968 8.56006 5.41843 8.71726 5.20654C9.10311 4.69802 9.04595 3.97761 8.57435 3.53971C8.31711 3.32783 7.81693 3.21482 7.10239 3.21482H5.3589V5.77157ZM0.5 24.1067L4.2585 23.8666C4.34425 24.474 4.50145 24.926 4.75868 25.2509C5.15883 25.7594 5.74475 26.0278 6.50217 26.0278C7.05951 26.0278 7.50253 25.9007 7.80264 25.6323C8.08846 25.4063 8.25995 25.0814 8.25995 24.7282C8.25995 24.3892 8.10275 24.0643 7.83122 23.8524C7.5454 23.5982 6.87373 23.3439 5.80192 23.1179C4.07272 22.7365 2.82941 22.228 2.10058 21.5782C1.37174 20.9708 0.957308 20.0809 0.98589 19.1345C0.98589 18.4847 1.18596 17.8349 1.55753 17.2981C1.98625 16.6907 2.57218 16.2104 3.27243 15.9421C4.02985 15.6172 5.08737 15.4477 6.41643 15.4477C8.04559 15.4477 9.28889 15.7443 10.1463 16.3517C11.0038 16.9591 11.504 17.9055 11.6612 19.2192L7.94555 19.4311C7.84551 18.8661 7.64544 18.4564 7.31675 18.188C7.00235 17.9196 6.55933 17.7925 6.00199 17.8066C5.54468 17.8066 5.2017 17.9055 4.97305 18.1033C4.74439 18.2728 4.61577 18.527 4.63006 18.8096C4.63006 19.0214 4.74439 19.2192 4.91588 19.3463C5.10166 19.5158 5.54468 19.6712 6.24494 19.8125C7.97413 20.1798 9.20315 20.547 9.96056 20.9284C10.718 21.3098 11.261 21.776 11.5897 22.3269C11.9327 22.8919 12.1042 23.5417 12.1042 24.1914C12.1042 24.9825 11.8613 25.7594 11.4182 26.4233C10.9466 27.1155 10.2893 27.6522 9.51755 27.9771C8.70297 28.3303 7.67402 28.5139 6.44501 28.5139C4.27279 28.5139 2.77225 28.1043 1.92909 27.2708C1.08593 26.4233 0.614327 25.378 0.5 24.1067Z" fill="currentColor"></path>
    <path d="M19.5069 23.1178L22.9653 24.149C22.7795 25.0107 22.3937 25.83 21.8649 26.5504C21.379 27.186 20.7359 27.6804 20.0071 28.0053C19.264 28.3302 18.3208 28.4997 17.1775 28.4997C15.7913 28.4997 14.648 28.302 13.7763 27.9064C12.8902 27.5109 12.1328 26.8046 11.4897 25.8017C10.8466 24.7988 10.5322 23.5134 10.5322 21.9454C10.5322 19.8548 11.0896 18.2445 12.2185 17.1286C13.3475 16.0126 14.9338 15.4476 16.9917 15.4476C18.6066 15.4476 19.8642 15.7725 20.7931 16.4081C21.7077 17.0579 22.3937 18.0467 22.851 19.3745L19.364 20.1373C19.2782 19.8407 19.1496 19.544 18.9781 19.2898C18.7638 18.9931 18.4922 18.7671 18.1636 18.5976C17.8349 18.4281 17.4633 18.3575 17.0917 18.3575C16.1914 18.3575 15.5055 18.7106 15.0339 19.431C14.6766 19.9537 14.4908 20.7871 14.4908 21.9172C14.4908 23.3156 14.7052 24.2761 15.1339 24.7988C15.5626 25.3214 16.1628 25.5757 16.9488 25.5757C17.7062 25.5757 18.2779 25.3638 18.6637 24.9542C19.0496 24.5163 19.3354 23.9089 19.5069 23.1178ZM27.5813 15.6595H31.5255V20.0808H35.8414V15.6595H39.8143V28.2878H35.8414V23.1743H31.5255V28.2878H27.5813V15.6595Z" fill="currentColor"></path>
    <path d="M39.2712 21.9738C39.2712 19.9114 39.8571 18.3011 41.0147 17.1569C42.1722 16.0127 43.8014 15.4336 45.8736 15.4336C48.0029 15.4336 49.6321 15.9986 50.7896 17.1287C51.9472 18.2587 52.5188 19.8408 52.5188 21.8749C52.5188 23.3581 52.2616 24.5588 51.7614 25.5052C51.2755 26.4375 50.5181 27.2003 49.5892 27.7088C48.6317 28.2314 47.4456 28.4998 46.0308 28.4998C44.5874 28.4998 43.4013 28.2738 42.4581 27.8218C41.4863 27.3415 40.686 26.5929 40.1572 25.6747C39.5713 24.6859 39.2712 23.457 39.2712 21.9738ZM43.2155 21.9879C43.2155 23.2592 43.4584 24.1774 43.93 24.7424C44.4016 25.2933 45.059 25.5758 45.8879 25.5758C46.731 25.5758 47.3884 25.3074 47.86 24.7565C48.3316 24.2056 48.5603 23.231 48.5603 21.8184C48.5603 20.6318 48.3173 19.756 47.8314 19.2193C47.3455 18.6684 46.6882 18.4 45.8593 18.4C45.1305 18.3717 44.4302 18.6825 43.9443 19.2334C43.4584 19.7843 43.2155 20.7025 43.2155 21.9879ZM56.5632 21.9738C56.5632 19.9114 57.1491 18.3011 58.3067 17.1569C59.4642 16.0127 61.0934 15.4336 63.1656 15.4336C65.2949 15.4336 66.9383 15.9986 68.0816 17.1287C69.2249 18.2587 69.8108 19.8408 69.8108 21.8749C69.8108 23.3581 69.5536 24.5588 69.0534 25.5052C68.5675 26.4375 67.8101 27.2003 66.8812 27.7088C65.9237 28.2314 64.7376 28.4998 63.3228 28.4998C61.8794 28.4998 60.6932 28.2738 59.75 27.8218C58.7782 27.3415 57.978 26.5929 57.4492 25.6747C56.8633 24.6859 56.5632 23.457 56.5632 21.9738ZM60.5074 21.9879C60.5074 23.2592 60.7504 24.1774 61.222 24.7424C61.6936 25.2933 62.351 25.5758 63.1798 25.5758C64.023 25.5758 64.6804 25.3074 65.152 24.7565C65.6236 24.2056 65.8522 23.231 65.8522 21.8184C65.8522 20.6318 65.6093 19.756 65.1234 19.2193C64.6375 18.6684 63.9801 18.4 63.1513 18.4C62.4224 18.3717 61.7079 18.6825 61.2363 19.2334C60.7504 19.7843 60.5074 20.7025 60.5074 21.9879Z" fill="currentColor"></path>
    <path d="M73.3407 15.6594V25.1802H79.5V28.2878H69.3821V15.6594H73.3407Z" fill="currentColor"></path>
    <path fill-rule="evenodd" clip-rule="evenodd" d="M56.7449 4.03879C53.0602 6.78342 52.187 11.1981 54.2055 13.8456C56.2239 16.4931 60.7579 16.8802 64.4426 14.1355C68.1273 11.3909 69.0004 6.97625 66.982 4.32874C64.9635 1.68124 60.4296 1.29416 56.7449 4.03879ZM52.6015 15.0403C49.699 11.2331 51.2749 5.6195 55.5323 2.4483C59.7897 -0.722899 65.6834 -0.673156 68.5859 3.13402C71.4885 6.94119 69.9125 12.5548 65.6552 15.726C61.3978 18.8972 55.5041 18.8475 52.6015 15.0403Z" fill="currentColor"></path>
    <path d="M56.5774 8.15874L58.0065 7.16995L59.7643 9.64194C60.0644 10.0375 60.2931 10.4612 60.4646 10.9274C60.5646 11.2805 60.536 11.6619 60.3931 12.0009C60.2073 12.4247 59.9072 12.7778 59.5071 13.0321C59.0355 13.357 58.6353 13.5406 58.2924 13.5971C57.9637 13.6536 57.6207 13.5971 57.3063 13.4559C56.9633 13.2864 56.6632 13.0462 56.4345 12.7355L57.6636 11.6054C57.7636 11.7608 57.8922 11.902 58.0351 12.015C58.1352 12.0857 58.2495 12.1281 58.3781 12.1281C58.4781 12.1281 58.5782 12.0857 58.6496 12.0292C58.7925 11.9444 58.8926 11.7749 58.8783 11.6054C58.8354 11.3653 58.7354 11.1251 58.5782 10.9415L56.5774 8.15874ZM60.8647 9.72669L62.1652 8.70964C62.3081 8.87915 62.4939 9.00628 62.6939 9.07691C62.9798 9.16166 63.2799 9.10516 63.5228 8.92153C63.6943 8.80852 63.8372 8.65314 63.8944 8.45538C63.9801 8.20112 63.8372 7.91861 63.58 7.83385C63.5371 7.81973 63.4942 7.8056 63.4514 7.8056C63.2799 7.79148 62.9798 7.8621 62.5367 8.04574C61.8079 8.34238 61.2363 8.45538 60.8075 8.413C60.3931 8.37063 60.0073 8.15874 59.7786 7.8056C59.6071 7.56546 59.5214 7.28295 59.5071 7.00044C59.5071 6.67555 59.5928 6.35066 59.7786 6.08227C60.0501 5.70088 60.3788 5.37599 60.779 5.12172C61.3792 4.71208 61.9079 4.51432 62.3652 4.51432C62.8226 4.51432 63.2513 4.7262 63.6514 5.1641L62.3652 6.16702C62.108 5.84213 61.6221 5.7715 61.2934 6.02577L61.2506 6.06814C61.1077 6.1529 61.0076 6.28003 60.9505 6.43541C60.9076 6.54842 60.9362 6.67555 61.0076 6.77443C61.0648 6.84506 61.1505 6.90156 61.2506 6.90156C61.3649 6.91568 61.565 6.85918 61.8508 6.73205C62.5653 6.43541 63.1084 6.2659 63.4799 6.2094C63.7943 6.1529 64.123 6.18115 64.4231 6.30828C64.6947 6.42129 64.9233 6.61904 65.0805 6.85918C65.2806 7.14169 65.3949 7.48071 65.4092 7.83385C65.4235 8.20112 65.3235 8.55426 65.1234 8.86503C64.8662 9.24642 64.5375 9.57131 64.1516 9.82557C63.3656 10.3623 62.7225 10.5884 62.208 10.5036C61.6507 10.4188 61.1934 10.1363 60.8647 9.72669Z" fill="currentColor"></path>
  </symbol>

  <symbol id="github-logo" viewBox="0 0 64 64">
    <path d="M 13 10 C 9.262 15.846 8.4448125 20.401234 8.3828125 23.115234 C 11.999813 20.000234 17.99975 17.999891 23.71875 17.962891 C 22.06575 15.742891 18.894 12.642 13 10 z M 51 10 C 45.054 12.666 41.877328 15.799437 40.236328 18.023438 C 46.000328 18.000438 52.999188 21.000438 55.617188 23.773438 C 55.675187 21.176437 55.06 16.349 51 10 z M 32 18.5 C 28.5465 18.5 25.092547 19 21.185547 20 C 13.195547 22.045 6.3837969 26.927109 6.8417969 35.162109 L 7.0039062 38.0625 C 7.0836981 39.496474 7.3352648 40.856601 7.7128906 42.150391 C 5.8177153 42.35656 3.0543923 42.854641 0.55273438 44.105469 A 1.0001161 1.0001161 0 0 0 1.4472656 45.894531 C 3.8843567 44.675986 6.702717 44.270388 8.4238281 44.115234 C 8.9576808 45.360171 9.6203375 46.523505 10.412109 47.585938 C 7.7781891 48.280785 4.1850522 49.816191 1.2324219 53.359375 A 1.0001 1.0001 0 1 0 2.7675781 54.640625 C 5.781497 51.023922 9.5232447 49.735167 11.837891 49.269531 C 15.3231 52.875744 20.369911 55 25.964844 55 L 38.033203 55 C 43.628136 55 48.676797 52.875744 52.162109 49.269531 C 54.476755 49.735177 58.218503 51.023954 61.232422 54.640625 A 1.0001 1.0001 0 1 0 62.767578 53.359375 C 59.814948 49.816219 56.221811 48.280793 53.587891 47.585938 C 54.379671 46.523505 55.042359 45.360171 55.576172 44.115234 C 57.297283 44.270388 60.115644 44.675984 62.552734 45.894531 A 1.0001163 1.0001163 0 1 0 63.447266 44.105469 C 60.944783 42.854228 58.180366 42.356428 56.285156 42.150391 C 56.662739 40.856554 56.916441 39.496533 56.996094 38.0625 L 57.15625 35.162109 C 57.61425 26.927109 50.803453 22.045 42.814453 20 C 38.907453 19 35.4535 18.5 32 18.5 z M 22.798828 30.228516 C 23.103248 30.223058 23.409984 30.229297 23.716797 30.248047 C 29.217797 30.584047 34.786109 30.584047 40.287109 30.248047 C 45.196109 29.948047 49.886656 32.787359 51.472656 37.443359 C 51.487656 37.487359 51.503578 37.532172 51.517578 37.576172 C 52.562578 40.785172 51.488422 44.260297 49.107422 46.654297 C 46.410422 49.366297 42.513156 51 38.035156 51 L 25.964844 51 C 21.486844 51 17.589578 49.366297 14.892578 46.654297 C 12.511578 44.260297 11.436375 40.784219 12.484375 37.574219 C 12.498375 37.531219 12.513344 37.486359 12.527344 37.443359 C 14.015156 33.078359 18.232537 30.310386 22.798828 30.228516 z M 23.5 34 A 2.5 4.5 0 0 0 23.5 43 A 2.5 4.5 0 0 0 23.5 34 z M 40.5 34 A 2.5 4.5 0 0 0 40.5 43 A 2.5 4.5 0 0 0 40.5 34 z M 32 41 A 2 2 0 0 0 32 45 A 2 2 0 0 0 32 41 z M 36.037109 44.988281 A 1.0001 1.0001 0 0 0 35.201172 45.398438 C 34.471032 46.370356 33.314511 47 32 47 C 30.684293 47 29.529179 46.370636 28.798828 45.398438 A 1.0001 1.0001 0 1 0 27.201172 46.601562 C 28.294821 48.057364 30.043707 49 32 49 C 33.955489 49 35.704968 48.057645 36.798828 46.601562 A 1.0001 1.0001 0 0 0 36.037109 44.988281 z" fill="currentColor"></path>
  </symbol>

  <symbol id="link-icon" viewBox="0 0 71 70" fill="none">
    <g clip-path="url(#clip0_13_317)">
      <path d="M27 43.75L44.5 26.25" stroke="currentColor" stroke-opacity="0.9" stroke-width="5" stroke-linecap="round" stroke-linejoin="round"/>
      <path d="M31.375 20.8114L39.5945 12.6083C42.0627 10.18 45.3904 8.82537 48.8529 8.83946C52.3153 8.85356 55.6319 10.2353 58.0802 12.6836C60.5285 15.1319 61.9102 18.4485 61.9243 21.9109C61.9384 25.3733 60.5838 28.7011 58.1555 31.1692L49.9359 39.3751" stroke="currentColor" stroke-opacity="0.9" stroke-width="5" stroke-linecap="round" stroke-linejoin="round"/>
      <path d="M21.5609 30.625L13.3578 38.8445C10.9295 41.3127 9.57488 44.6404 9.58898 48.1029C9.60307 51.5653 10.9848 54.8819 13.4331 57.3302C15.8814 59.7785 19.198 61.1602 22.6604 61.1743C26.1228 61.1884 29.4506 59.8338 31.9188 57.4055L40.1246 49.1859" stroke="currentColor" stroke-opacity="0.9" stroke-width="5" stroke-linecap="round" stroke-linejoin="round"/>
    </g>
    <defs>
      <clipPath id="clip0_13_317">
        <rect width="70" height="70" fill="currentColor" transform="translate(0.75)"/>
      </clipPath>
    </defs>
  </symbol>

  <symbol id="folder-icon" viewBox="0 0 180 141" fill="none">
    <g clip-path="url(#clip0)">
      <path d="M156.96 0.381836C159.703 0.684628 162.453 0.940059 165.189 1.29938C174.067 2.46897 178.4 7.35699 178.83 16.3608C179.613 32.7597 178.758 49.1215 178.153 65.5031C177.744 76.5557 178.271 87.6408 178.214 98.7102C178.178 105.346 178.177 112.016 177.538 118.61C176.171 132.687 168.11 140.015 153.925 140.475C149.274 140.626 144.611 140.461 139.954 140.44C127.761 140.383 115.569 140.324 103.376 140.264C83.8624 140.146 64.348 140.078 44.8358 139.814C41.0693 139.681 37.3232 139.199 33.6457 138.373C28.0149 137.228 23.9946 133.594 20.9075 128.976C17.6148 124.05 15.6283 118.483 14.1677 112.804C10.9202 100.179 7.82017 87.516 4.86753 74.8163C3.40959 68.5785 2.18252 62.2722 1.17079 55.9454C0.133106 49.4211 3.001 45.5278 9.50725 44.2984C13.3032 43.5837 17.1601 43.174 21.1513 42.6035C21.2648 42.0051 21.39 41.3765 21.5028 40.7456C22.1851 36.9353 24.3403 34.0877 27.9384 32.9337C32.3296 31.451 36.8466 30.3729 41.4335 29.7128C61.6267 27.1436 81.9388 27.6772 102.229 27.8143C103.225 27.8214 104.222 27.7963 105.216 27.7496C105.41 27.7405 105.595 27.5612 105.858 27.4215C105.858 24.9465 105.8 22.4288 105.874 19.9149C105.955 17.1508 106.03 14.3763 106.333 11.631C107.006 5.53678 109.317 2.90655 115.492 2.12682C121.308 1.39258 127.2 1.24432 133.063 0.886297C136.59 0.670573 140.122 0.546877 143.652 0.381836H156.96ZM10.2674 52.2879C10.3446 53.949 10.5047 55.6056 10.7473 57.2506C13.778 71.7253 16.7503 86.2139 19.9567 100.649C21.8535 109.52 25.16 118.029 29.7498 125.85C31.8122 129.313 34.756 131.057 38.7115 131.113C42.7974 131.172 46.8878 131.123 50.9762 131.118C71.7066 131.094 92.4368 131.073 113.167 131.053C121.591 131.053 130.015 131.151 138.439 131.21C144.204 131.249 149.968 131.34 155.732 131.323C158.527 131.388 161.266 130.53 163.527 128.884C166.608 126.577 167.134 124.006 165.3 120.622C164.646 119.468 164.054 118.281 163.524 117.066C158.466 104.815 153.224 92.6342 148.478 80.2646C145.684 72.8072 142.032 65.7006 137.597 59.0896C134.018 53.8316 129.267 50.2105 122.818 49.3392C119.097 48.7513 115.34 48.4317 111.575 48.3823C100.823 48.4882 90.0742 48.8599 79.3244 49.1374C60.4853 49.6227 41.6436 50.0409 22.8103 50.6647C18.7705 50.7986 14.7566 51.6856 10.2674 52.2879ZM167.659 102.702L168.317 102.673C168.317 101.353 168.391 100.029 168.306 98.7148C167.194 81.3341 167.86 63.9767 168.596 46.5979C169.002 36.9924 168.498 27.3419 168.227 17.7168C168.105 13.3543 167.458 12.893 163.104 12.4908C161.779 12.3686 160.449 12.2312 159.122 12.2312C146.483 12.2412 133.844 12.2729 121.206 12.3271C119.681 12.3349 118.158 12.6002 116.594 12.7497C116.594 16.6197 116.554 20.2431 116.609 23.8649C116.643 26.0741 116.966 28.2893 116.907 30.4927C116.803 34.3725 115.415 36.1186 111.6 36.9809C109.14 37.5954 106.619 37.9318 104.084 37.9841C92.1113 37.9334 80.1325 37.3991 68.1687 37.6401C58.2141 37.8429 48.2692 38.7973 38.3353 39.6186C35.7087 39.8357 32.9096 40.1554 30.3582 42.4855C30.8961 42.6011 31.4409 42.6817 31.9893 42.7266C47.6167 42.4377 63.244 42.1391 78.8711 41.8306C92.0555 41.5493 105.239 40.991 118.424 40.9442C128.434 40.9085 137.272 44.4093 143.452 52.5106C147.577 57.8452 151.15 63.585 154.118 69.6428C158.225 78.1912 161.451 87.1625 165.036 95.9585C165.946 98.195 166.787 100.454 167.659 102.702Z" fill="currentColor"/>
    </g>
    <defs>
      <clipPath id="clip0">
        <rect fill="currentColor" height="141" transform="translate(0.777344)" width="179"/>
      </clipPath>
    </defs>
  </symbol>

  <symbol id="arrow-move" viewBox="0 0 151 84" fill="none">
    <path d="M68.1002 41.3499C50.104 41.2042 32.1079 41.0874 14.1118 40.8905C10.5249 40.8505 6.93279 40.5689 3.36035 40.2178C2.76932 40.1535 2.21142 39.9124 1.75964 39.526C1.30786 39.1395 0.983227 38.6258 0.828173 38.0518C0.53479 37.133 1.55475 35.8295 2.77291 35.6378C3.95432 35.4521 5.12976 35.1639 6.31707 35.0924C13.8997 34.6329 21.4818 33.9826 29.0717 33.8454C44.665 33.5652 60.2628 33.4943 75.8594 33.4765C90.6565 33.4595 105.454 33.6446 120.251 33.6787C122.627 33.6846 125.005 33.3853 127.377 33.1733C127.534 33.1345 127.679 33.0567 127.799 32.9472C127.918 32.8377 128.008 32.6999 128.061 32.5465C128.103 32.1803 127.995 31.562 127.751 31.4307C123.204 28.9589 118.713 26.3585 114.037 24.1526C103.16 19.0207 92.9557 12.7277 82.7588 6.41374C81.0832 5.37607 79.3268 4.32201 78.6508 2.26308C78.528 1.88831 78.3364 1.24642 78.4926 1.12106C79.052 0.599398 79.7318 0.224347 80.4715 0.0295109C81.2592 -0.0634608 82.0572 0.0642497 82.7765 0.39838C85.3244 1.55222 87.854 2.75664 90.333 4.05094C108.051 13.3014 125.763 22.5621 143.469 31.8331C150.157 35.3116 153.336 38.6846 145.307 46.3329C142.994 48.5375 140.654 50.7389 138.139 52.6993C126.475 61.8006 114.768 70.8462 103.018 79.8362C101.403 80.9957 99.699 82.0271 97.9228 82.9211C96.7644 83.5499 95.6046 83.177 94.6044 82.4229C93.5037 81.5926 92.8204 79.1793 93.1998 78.118C94.0432 75.7617 95.7235 74.033 97.5278 72.4676C104.475 66.4411 111.46 60.4579 118.481 54.518C123.044 50.6365 127.655 46.812 132.211 42.9225C132.436 42.7309 132.447 42.1349 132.356 41.7766C132.296 41.6215 132.199 41.4833 132.074 41.3737C131.949 41.2642 131.799 41.1867 131.638 41.1478C129.256 40.9916 126.871 40.7927 124.488 40.8052C105.691 40.9045 86.8948 41.0283 68.0982 41.1767L68.1002 41.3499Z" fill="currentColor"/>
  </symbol>

</svg>