<svg width="218" height="218" viewBox="0 0 218 218" fill="none" xmlns="http://www.w3.org/2000/svg">
<g clip-path="url(#clip0_4_43)">
<path fill-rule="evenodd" clip-rule="evenodd" d="M106.577 53.3284C106.913 50.5442 107.349 47.8226 107.906 45.1359C108.738 41.1054 110.111 37.2013 111.155 33.2332C111.597 31.5494 112.681 27.1395 112.946 26.5374C115.285 21.2992 119.933 21.7633 121.264 21.9941C121.913 22.0885 128.52 23.2604 127.807 30.7602C126.941 39.9319 124.907 48.8236 121.785 57.1999C121.037 64.8838 121.291 72.8306 122.512 80.318C127.377 110.099 150.56 119.693 176.558 127.104C180.563 128.221 182.951 132.327 181.99 136.352C181.021 140.407 177.032 142.988 172.957 142.175C158.052 139.299 128.91 143.336 116.45 152.813C113.843 154.797 110.959 160.587 107.761 166.155C103.311 173.881 98.5096 181.405 94.8284 184.077C94.2708 184.496 87.7983 188.547 86.1125 188.924C82.069 189.805 79.608 187.88 78.3245 186.399C77.041 184.919 75.839 182.394 76.0997 178.875C76.3716 175.198 79.0961 168.291 79.4282 166.737C80.6317 161.099 82.7208 149.956 83.214 139.994C83.4782 134.629 83.5476 129.628 82.0849 126.702C76.6695 115.872 63.6346 113.387 52.5554 111.641C51.2866 111.428 50.009 111.246 48.7431 111.035C44.023 111.035 39.1313 110.628 34.0917 109.757C26.4787 108.45 27.2648 101.328 27.3311 100.862C27.4842 99.8381 28.4692 94.6216 34.6131 94.2313C35.2796 94.2012 40.0341 94.5348 41.868 94.6547C44.4223 94.8252 46.9681 95.1229 49.5142 95.453C76.9375 95.0562 97.052 77.1473 106.577 53.3284ZM107.206 82.9618C110.904 105.369 122.499 119.092 138.291 128.416L138.288 128.415C125.993 130.845 114.247 134.961 107.046 140.449C104.314 142.526 100.952 147.333 97.5728 152.847C98.3438 147.017 98.9135 140.738 98.8496 135.212C98.7822 128.907 97.8104 123.405 95.9903 119.758C92.4732 112.728 86.9238 107.754 80.4314 104.186C90.9118 99.2763 99.92 91.9562 107.206 82.9618Z" fill="black"/>
</g>
<defs>
<clipPath id="clip0_4_43">
<rect width="174" height="174" fill="white" transform="translate(50.1748 0.937073) rotate(16.4379)"/>
</clipPath>
</defs>
</svg>
